<svg width="35" height="35" viewBox="0 0 35 35" fill="none" xmlns="http://www.w3.org/2000/svg">
<path d="M24.1943 29.875H10.8054C9.01049 29.875 7.55542 28.4199 7.55542 26.625V8.375C7.55542 6.58007 9.01049 5.125 10.8054 5.125H21.037C21.8206 5.125 22.5778 5.40812 23.1692 5.92223L26.3265 8.66697C27.0366 9.28423 27.4443 10.1789 27.4443 11.1197V26.625C27.4443 28.4199 25.9892 29.875 24.1943 29.875Z" stroke="#438CB4" stroke-width="1.5"/>
<path d="M10.6943 21.875H24.3054" stroke="#438CB4" stroke-width="1.5" stroke-linecap="round"/>
<path d="M10.6943 24.7917H24.3054" stroke="#438CB4" stroke-width="1.5" stroke-linecap="round"/>
<path d="M20.4165 5.34717V11.1249C20.4165 12.2295 21.3119 13.1249 22.4165 13.1249H28.1943" stroke="#438CB4" stroke-width="1.5"/>
<rect x="11.4443" y="11.9307" width="5.30556" height="5.30556" rx="1.25" stroke="#438CB4" stroke-width="1.5"/>
</svg>
